<svg xmlns="http://www.w3.org/2000/svg" xmlns:xlink="http://www.w3.org/1999/xlink" width="256" zoomAndPan="magnify" viewBox="0 0 192 191.999996" height="256" preserveAspectRatio="xMidYMid meet" version="1.0"><defs><g/></defs><rect x="-19.2" width="230.4" fill="#ffffff" y="-19.2" height="230.399995" fill-opacity="1"/><rect x="-19.2" width="230.4" fill="#ffffff" y="-19.2" height="230.399995" fill-opacity="1"/><rect x="-19.2" width="230.4" fill="#5e17eb" y="-19.2" height="230.399995" fill-opacity="1"/><g fill="#ffffff" fill-opacity="1"><g transform="translate(32.001591, 142.173144)"><g><path d="M 7.867188 -107.902344 L 8.671875 -104.210938 L 22.800781 -104.210938 L 14.933594 5.136719 C 14.453125 11.238281 13.167969 15.894531 11.078125 18.945312 C 8.992188 22.160156 5.621094 25.210938 0.804688 28.101562 L -5.296875 31.632812 L -3.53125 33.71875 L 4.335938 29.542969 C 10.4375 26.332031 14.773438 22.960938 17.339844 19.589844 C 19.910156 16.21875 21.515625 11.078125 22.160156 3.855469 L 30.828125 -104.210938 L 45.601562 -104.210938 L 45.761719 -107.902344 Z M 7.867188 -107.902344 "/></g></g></g><g fill="#ffffff" fill-opacity="1"><g transform="translate(77.603391, 142.173144)"><g><path d="M 10.757812 -104.210938 L 23.605469 -104.210938 L 14.933594 1.445312 L 1.125 1.605469 L 1.925781 5.296875 L 43.03125 4.976562 L 43.191406 1.125 L 22.800781 1.285156 L 26.976562 -49.9375 L 51.0625 -49.9375 C 58.125 -49.9375 59.25 -43.355469 59.089844 -32.273438 L 62.140625 -32.433594 L 65.992188 -71.453125 L 63.105469 -71.292969 C 61.015625 -59.890625 58.609375 -53.308594 51.542969 -53.308594 L 27.296875 -53.308594 L 31.472656 -104.210938 L 66.476562 -104.210938 C 74.664062 -104.210938 77.234375 -97.785156 77.234375 -79.804688 L 80.445312 -81.085938 L 84.460938 -107.902344 L 10.277344 -107.902344 Z M 10.757812 -104.210938 "/></g></g></g></svg>