<!-- Generator: Adobe Illustrator 25.0.0, SVG Export Plug-In  -->
<svg version="1.1" xmlns="http://www.w3.org/2000/svg" xmlns:xlink="http://www.w3.org/1999/xlink" x="0px" y="0px"
	 width="414.91px" height="397.62px" viewBox="0 0 414.91 397.62"
	 style="overflow:visible;enable-background:new 0 0 414.91 397.62;" xml:space="preserve">
<style type="text/css">
	.st0{fill:#FFFFFF;}
	.st1{fill:#AC8FEF;}
	.st2{fill:#FEC568;}
</style>
<defs>
</defs>
<g>
	<path class="st0" d="M22.32,1.4v37.96c0,5.72-1.62,10.45-4.87,14.17c-3.25,3.73-7.36,5.59-12.34,5.59c-1.46,0-3.16-0.32-5.12-0.95
		V41.97c0.83,0.36,1.58,0.54,2.27,0.54c2.2,0,3.3-1.77,3.3-5.32V1.4H22.32z"/>
	<path class="st0" d="M50.3,15.72c5.83,0,10.83,2.1,15,6.29c4.17,4.2,6.25,9.22,6.25,15.08c0,5.94-2.11,11-6.33,15.19
		c-4.22,4.18-9.32,6.27-15.29,6.27c-5.97,0-11.07-2.1-15.31-6.29c-4.24-4.19-6.35-9.25-6.35-15.16c0-6.02,2.12-11.09,6.35-15.21
		C38.86,17.78,44.08,15.72,50.3,15.72z M49.89,30.95c-1.65,0-3.05,0.6-4.21,1.79c-1.16,1.2-1.73,2.66-1.73,4.39
		c0,1.71,0.58,3.16,1.75,4.37c1.17,1.21,2.56,1.82,4.19,1.82c1.65,0,3.06-0.6,4.23-1.82c1.17-1.21,1.75-2.67,1.75-4.37
		c0-1.73-0.58-3.2-1.73-4.39C52.98,31.55,51.57,30.95,49.89,30.95z"/>
	<path class="st0" d="M92.51,1.4v33.71c0,5.47,1.97,8.21,5.9,8.21c1.68,0,3.1-0.57,4.27-1.71c1.17-1.14,1.75-2.52,1.75-4.15
		c0-1.68-0.55-3.09-1.65-4.23c-1.1-1.14-2.45-1.71-4.04-1.71c-1.13,0-2.42,0.5-3.88,1.49v-17c1.82-0.17,3.19-0.25,4.13-0.25
		c5.8,0,10.78,2.09,14.92,6.27c4.14,4.18,6.21,9.22,6.21,15.1c0,6.02-2.1,11.1-6.31,15.23c-4.21,4.13-9.38,6.19-15.52,6.19
		c-3.08,0-6.09-0.67-9.02-2.02c-2.93-1.35-5.34-3.16-7.24-5.45c-3.3-3.96-4.95-9.09-4.95-15.39V1.4H92.51z"/>
	<path class="st0" d="M149.21,27.94v15.1h-5.57v14.69h-16.75V22.78c0-6.57,2.03-12.01,6.09-16.32C137.03,2.15,142.14,0,148.3,0
		c6.79,0,12.48,2.93,17.04,8.79L151.6,18.82c-0.77-2.15-2.13-3.22-4.09-3.22c-2.59,0-3.88,1.79-3.88,5.36v6.97H149.21z"/>
	<path class="st0" d="M183,1.4v56.32h-15.43V1.4H183z"/>
	<path class="st0" d="M211.56,15.72c5.83,0,10.83,2.1,15,6.29c4.17,4.2,6.25,9.22,6.25,15.08c0,5.94-2.11,11-6.33,15.19
		c-4.22,4.18-9.32,6.27-15.29,6.27c-5.97,0-11.07-2.1-15.31-6.29c-4.24-4.19-6.35-9.25-6.35-15.16c0-6.02,2.12-11.09,6.35-15.21
		C200.11,17.78,205.34,15.72,211.56,15.72z M211.15,30.95c-1.65,0-3.05,0.6-4.21,1.79c-1.16,1.2-1.73,2.66-1.73,4.39
		c0,1.71,0.58,3.16,1.75,4.37c1.17,1.21,2.56,1.82,4.19,1.82c1.65,0,3.06-0.6,4.23-1.82c1.17-1.21,1.75-2.67,1.75-4.37
		c0-1.73-0.58-3.2-1.73-4.39C214.24,31.55,212.82,30.95,211.15,30.95z"/>
	<path class="st0" d="M239.25,17.17h15.43v22.16c0,1.73,0.18,2.94,0.54,3.61c0.36,0.67,1,1.01,1.94,1.01c1.73,0,2.6-1.54,2.6-4.62
		V17.17h15.43v22.16c0,1.73,0.19,2.94,0.56,3.61c0.37,0.67,1.02,1.01,1.96,1.01c1.71,0,2.56-1.54,2.56-4.62V17.17h15.43V42.5
		c0,4.62-1.55,8.55-4.66,11.78c-3.11,3.23-6.88,4.85-11.31,4.85c-4.57,0-8.67-1.93-12.3-5.78c-4.02,3.85-8.06,5.78-12.13,5.78
		c-5.14,0-9.27-1.87-12.38-5.61c-2.45-2.94-3.67-7.19-3.67-12.75V17.17z"/>
	<path class="st0" d="M368.57,29.46v14.85h-4.83v13.41h-16.75V21.91c0-6.93,1.89-12.32,5.67-16.15c3.78-3.84,9.1-5.76,15.95-5.76
		c6.6,0,11.48,1.74,14.65,5.22c3.16,3.48,4.75,8.85,4.75,16.11v36.39h-16.75V22.45c0-2.2-0.26-3.73-0.78-4.58
		c-0.52-0.85-1.46-1.28-2.81-1.28c-2.61,0-3.92,1.95-3.92,5.86v7.01H368.57z"/>
	<path class="st0" d="M414.91,1.4v56.32h-16.75V1.4H414.91z"/>
</g>
<g>
	<g>
		<path class="st1" d="M3.43,164.3v-5.18h43.44v5.18h-16.8v2.64h13.44v4.9H30.07v3.65h16.56v5.18H27.29
			c-6.14,0.03-10.62-1.26-13.44-3.89c-2.14,2.82-5.49,4.56-10.03,5.23v-6.14c3.74-1.76,5.66-5.28,5.76-10.56h7.68
			c-0.1,2.21-0.35,4.14-0.77,5.81c1.25,1.73,2.98,2.93,5.18,3.6V164.3H3.43z M42.41,139.43v17.95H7.89v-17.95H42.41z M15.81,144.23
			v2.11h18.67v-2.11H15.81z M15.81,152.58h18.67v-2.16H15.81V152.58z"/>
		<path class="st1" d="M51,160.26v-5.76h44.21v5.76H51z"/>
		<path class="st1" d="M99.05,149.7c7.78-2.88,13.63-6.91,17.57-12.1h9.02c3.94,5.18,9.79,9.22,17.57,12.1v6.72
			c-9.5-2.05-16.86-5.78-22.08-11.18c-5.22,5.41-12.58,9.14-22.08,11.18V149.7z M116.66,181.53V152.3h8.93v29.23H116.66z"/>
		<path class="st2" d="M147.62,181.58v-7.87c11.2-6.98,16.9-17.18,17.09-30.62v-4.94h8.83v4.94c0.1,13.41,5.79,23.62,17.09,30.62
			v7.87c-10.59-4.35-17.76-11.01-21.5-19.97C165.38,170.57,158.21,177.22,147.62,181.58z"/>
		<path class="st2" d="M195.81,178.74v-5.76h16.85v-26.16h-14.59v-5.71h38.02v5.71h-14.54v26.16h16.9v5.76H195.81z"/>
		<path class="st2" d="M243.62,146.49v-4.75c1.95-0.74,3.33-2.03,4.13-3.89h6.1c-0.03,0.1-0.06,0.22-0.1,0.38
			c-0.19,0.7-0.35,1.22-0.48,1.54h12.62v4.56h-7.01v1.58c0,0.42-0.02,0.82-0.05,1.2h7.92v4.56h-6.53c1.82,1.41,3.92,2.43,6.29,3.07
			v5.28c-4.9-0.54-8.51-2.06-10.85-4.56c-2.4,2.59-6.42,4.19-12.05,4.8v-4.85c3.07-0.86,5.25-2.11,6.53-3.74h-6.58v-4.56h8.26
			c0.06-0.42,0.1-0.86,0.1-1.34v-1.44h-1.97C248.36,145.58,246.24,146.3,243.62,146.49z M247.27,180.9v-20.54h35.95v20.54H247.27z
			 M275.78,165.4h-21.07v2.83h21.07V165.4z M254.71,175.86h21.07v-3.07h-21.07V175.86z M267.81,139.91h17.62v18.53h-17.62V139.91z
			 M274.53,153.88h4.18v-9.41h-4.18V153.88z"/>
		<path class="st2" d="M315.29,138.28h7.44v4.85c2.11-0.77,3.81-1.95,5.09-3.55h6.91c-2.11,5.31-6.11,8.37-12,9.17v4.08h5.95v-3.12
			h5.81v8.4h-19.2v-5.04h-6.82c-0.13-0.48-0.29-0.98-0.48-1.49c-3.97,0.51-9.39,0.77-16.27,0.77v-5.38
			c2.88-2.69,5.38-5.65,7.49-8.88h8.11c-2.27,3.94-4.67,6.9-7.2,8.88c1.95,0,4-0.11,6.14-0.34c-0.51-1.31-1.04-2.59-1.58-3.84h6.43
			c1.54,3.07,2.93,6.35,4.18,9.84V138.28z M302.95,176.1h3.31v-2.88h-6.43v8.06h-6.96v-27.12h20.35v26.98h-10.27V176.1z
			 M306.26,158.97h-6.43v2.78h6.43V158.97z M299.83,166.07v2.83h6.43v-2.83H299.83z M315.38,159.3h7.44v5.76
			c2.18-0.86,3.89-2.29,5.14-4.27h6.96c-1.98,5.76-6.02,9.17-12.1,10.22v4.66h5.71v-3.5h6.05v8.78h-19.2V159.3z"/>
		<path class="st1" d="M13.41,242.49c-3.1,0.86-6.53,1.44-10.27,1.73v-5.95c3.71-0.22,7.14-0.7,10.27-1.44V242.49z M21.19,228.86
			v24.24H8.52v-5.04h5.47V233.9h-9.6v-15.74h6.72v10.7h2.4v-12.48H3.57v-5.04h16.42v17.52H21.19z M22.34,211.96h24v5.28H29.78v29.57
			h16.94v5.28H22.34V211.96z M46.1,219.02c-0.7,6.34-2.11,11.54-4.22,15.6c1.15,1.63,2.54,3.2,4.18,4.7v6.38
			c-3.04-1.5-5.62-3.46-7.73-5.86c-2.11,2.4-4.66,4.35-7.63,5.86v-6.38c1.57-1.47,2.93-3.02,4.08-4.66
			c-2.14-4.03-3.57-9.25-4.27-15.65h5.95c0.45,3.39,1.07,6.24,1.87,8.54c0.83-2.53,1.46-5.38,1.87-8.54H46.1z"/>
		<path class="st1" d="M51.29,228.86v-5.28h21.17v5.28h-8.16c-0.32,1.34-0.75,2.86-1.3,4.56h6.43c1.06,3.81,1.95,7.42,2.69,10.85
			c2.46-4.74,3.68-12.53,3.65-23.38h-2.93v-5.28h2.93v-5.76h7.44v5.76h10.85v37.06H81.91v-5.28h4.7v-26.5h-3.41v0.19
			c0.16,17.6-3.73,28.51-11.66,32.74v-4.99h-5.28c-0.03-0.16-0.08-0.4-0.14-0.72c-0.1-0.42-0.16-0.74-0.19-0.96
			c-4,0.61-8.78,0.88-14.35,0.82v-5.76c2.24-4.32,3.87-8.77,4.9-13.34H51.29z M53.35,217.62v-5.28h17.66v5.28H53.35z M58.53,242.3
			c2.05,0,4.18-0.13,6.38-0.38c-0.54-2.75-1.18-5.57-1.92-8.45C61.88,236.76,60.39,239.7,58.53,242.3z"/>
		<path class="st1" d="M114.93,210.33c-0.42,1.95-0.85,3.57-1.3,4.85h6.53v37.44h-19.39v-37.44h5.18c0.61-2.02,1.02-3.63,1.25-4.85
			H114.93z M107.97,220.46v10.03h4.99v-10.03H107.97z M112.97,247.34v-11.57h-4.99v11.57H112.97z M120.98,218.44
			c2.24-1.89,3.62-4.64,4.13-8.26h7.34c-0.19,1.6-0.48,3.04-0.86,4.32h10.32v38.3h-14.3v-5.38h6.62v-27.55h-5.04
			c-1.92,2.85-4.66,4.7-8.21,5.57V218.44z M124.63,239.7c-0.64-4.1-1.6-8.43-2.88-13.01h7.06c1.34,4.42,2.43,8.75,3.26,13.01H124.63
			z"/>
		<path class="st2" d="M6.84,313.29v-5.62c4.67-1.06,8.56-2.64,11.66-4.75c-4.51,1.02-9.26,1.73-14.26,2.11v-5.76
			c4.32-0.51,8.34-1.25,12.05-2.21c-1.57-0.29-3.25-0.58-5.04-0.86v-2.88c-1.89,0.48-3.98,0.91-6.29,1.3v-5.86
			c5.38-1.28,9.57-3.5,12.58-6.67h8.93c-0.42,0.77-0.86,1.49-1.34,2.16h18.38v5.28c-4.19,4.8-9.92,8.5-17.18,11.09h4.42
			c-0.48,0.7-0.98,1.34-1.49,1.92h16.22v5.38c-7.9,10.3-21.66,16.22-41.28,17.76v-6c5.41-0.67,10.38-1.74,14.93-3.22
			c-1.57-0.29-3.54-0.62-5.9-1.01v-3.31C11.27,312.62,9.14,313,6.84,313.29z M32.85,289.58H19.85c-0.93,0.64-1.92,1.22-2.98,1.73
			c2.75,0.38,5.33,0.94,7.73,1.68v1.34C27.8,292.98,30.55,291.4,32.85,289.58z M34.53,307.86H23.35c-1.44,0.96-2.99,1.78-4.66,2.45
			c2.88,0.45,5.5,1.02,7.87,1.73v1.44C29.8,311.82,32.45,309.94,34.53,307.86z"/>
		<path class="st2" d="M51.53,311.37v-5.28h2.4v-2.45h6.48v2.45h6.48v-2.45h6.48v2.45h2.11v5.28h-2.35
			c-0.45,3.33-1.66,6.02-3.65,8.06c1.57,0.42,3.01,0.74,4.32,0.96v5.23c-4.22-0.42-7.74-1.22-10.56-2.4c-3.17,1.15-7.17,1.95-12,2.4
			v-5.28c2.34-0.26,4.42-0.62,6.24-1.1c-1.79-2.08-2.9-4.7-3.31-7.87H51.53z M95.01,286.98v5.28h-1.87
			c-0.32,8.35-1.89,15.22-4.7,20.59c1.63,2.14,3.63,4.1,6,5.86v7.01c-4-1.98-7.3-4.38-9.89-7.2c-2.66,2.98-5.98,5.36-9.98,7.15
			v-6.24c2.56-2.08,4.58-4.19,6.05-6.34c-2.3-4.06-3.9-9.01-4.8-14.83c-0.35,0.13-0.72,0.24-1.1,0.34v-2.74h-2.78
			c0.7,1.44,1.79,2.67,3.26,3.7v4.66c-4.16-1.34-6.93-3.81-8.3-7.39v6.43h-6.58v-6.82c-1.66,4.19-4.56,6.78-8.69,7.78v-4.42
			c1.44-0.96,2.59-2.27,3.46-3.94h-3.02v-5.28h8.26v-8.5h6.58v8.5h7.97v1.68c2.11-2.34,3.52-5.7,4.22-10.08h6.82
			c-0.22,1.76-0.53,3.36-0.91,4.8H95.01z M52.25,283h5.66c0.32,2.46,0.82,4.67,1.49,6.62h-5.57C53.16,287.9,52.63,285.69,52.25,283z
			 M63.38,316.41c1.63-1.28,2.67-2.96,3.12-5.04h-5.81C61.08,313.45,61.97,315.13,63.38,316.41z M74.95,283
			c-0.38,2.69-0.91,4.9-1.58,6.62H67.8c0.67-1.95,1.17-4.16,1.49-6.62H74.95z M81.96,295.43c0.45,3.58,1.26,6.94,2.45,10.08
			c1.12-3.52,1.82-7.94,2.11-13.25h-3.6c-0.7,1.25-1.5,2.3-2.4,3.17H81.96z"/>
		<path class="st2" d="M102.84,282.09h6.96v5.76h2.45v5.04h-2.45v8.26c0.1-0.03,0.26-0.06,0.48-0.1c0.51-0.13,1.2-0.3,2.06-0.53
			v5.52c-0.83,0.29-1.68,0.58-2.54,0.86v18.53h-9.6v-5.04h2.64v-11.81c-0.22,0.03-0.58,0.1-1.06,0.19c-0.99,0.19-1.76,0.32-2.3,0.38
			v-6.19c1.15-0.13,2.27-0.29,3.36-0.48v-9.6h-2.88v-5.04h2.88V282.09z M120.17,325v-13.92c-0.38,8.51-3.39,13.39-9.02,14.64v-7.54
			c1.47-1.54,2.18-4.45,2.11-8.74v-25.82h28.9v13.15h-8.06v3.36h8.74v4.8h-8.74v3.98h7.39V325H120.17z M120.21,288.66v3.31h15.46
			v-3.31H120.21z M120.21,296.78v3.36h6.91v-3.36H120.21z M120.21,308.58v0.34h6.91v-3.98h-6.91V308.58z M126.65,313.72v6.48H135
			v-6.48H126.65z"/>
		<path class="st2" d="M154.29,324.71h-7.1c1.63-6.34,2.88-12.74,3.74-19.2h6.58C156.81,312.97,155.73,319.37,154.29,324.71z
			 M154.49,282.95c0.93,2.66,1.78,5.68,2.54,9.07h-7.01c-0.77-3.52-1.54-6.54-2.3-9.07H154.49z M154.87,294.14
			c1.09,2.91,1.97,5.92,2.64,9.02h-6.91c-0.42-2.18-1.2-5.18-2.35-9.02H154.87z M190.82,288.81h-25.06v21.46
			c0.1,8.51-2.98,13.71-9.22,15.6v-7.2c1.38-1.66,2.05-4.53,2.02-8.59v-26.54h32.26V288.81z M168.36,312.04h5.62
			c-0.67,6.46-3.62,10.42-8.83,11.86v-5.33C166.74,317.19,167.81,315.02,168.36,312.04z M180.31,289.38
			c-0.19,1.02-0.4,1.94-0.62,2.74h9.6v18.48h-7.39v14.78h-10.51v-5.04h3.31v-9.74h-7.58v-18.48h4.9c0.22-0.77,0.43-1.68,0.62-2.74
			H180.31z M182.57,296.92h-8.74v2.21h8.74V296.92z M173.83,305.75h8.74v-2.3h-8.74V305.75z M187.85,312.04
			c0.45,2.75,1.5,4.88,3.17,6.38v5.47c-5.38-1.73-8.22-5.68-8.54-11.86H187.85z"/>
		<path class="st2" d="M195.53,289.29v-5.28h18.96v5.28h-1.58v23.28c0.26-0.06,0.66-0.13,1.2-0.19c0.45-0.1,0.78-0.16,1.01-0.19
			v5.33c-0.22,0.03-0.54,0.1-0.96,0.19c-0.54,0.13-0.96,0.22-1.25,0.29v7.49h-6.29v-6.43c-3.62,0.54-7.44,0.96-11.47,1.25v-5.81
			c0.22,0,0.58-0.02,1.06-0.05c0.45,0,0.78-0.02,1.01-0.05v-25.1H195.53z M203.54,289.29v4.42h3.07v-4.42H203.54z M203.54,298.74
			v4.85h3.07v-4.85H203.54z M203.54,313.82c0.35-0.03,0.86-0.1,1.54-0.19c0.7-0.06,1.22-0.13,1.54-0.19v-4.85h-3.07V313.82z
			 M225.72,309.64c-1.02,8.54-4.86,13.87-11.52,15.98v-6.82c2.27-2.14,3.78-5.2,4.51-9.17H225.72z M215.83,307.58v-23.33H237v23.33
			H215.83z M229.41,289.53h-6v12.77h6V289.53z M227.4,309.64h7.01c0.67,3.87,2.18,6.93,4.51,9.17v6.82
			C232.13,323.32,228.29,317.99,227.4,309.64z"/>
		<path class="st2" d="M243.77,289.91h7.44c0.45,6.66,1.49,13.81,3.12,21.46h-7.15C245.54,305.51,244.4,298.36,243.77,289.91z
			 M286.44,318.28v5.52h-42.53v-5.52h11.18v-35.86h7.92v35.86h4.27v-35.86h7.92v35.86H286.44z M286.49,289.91
			c-0.64,8.06-1.79,15.22-3.46,21.46h-7.1c1.6-7.46,2.64-14.61,3.12-21.46H286.49z"/>
		<path class="st2" d="M334.73,289.24h-43.01v-5.33h43.01V289.24z M293.01,324.9v-32.4h6.82v27.02h26.83V292.5h6.82v32.4H293.01z
			 M301.46,316.94v-25.39h23.52v25.39H301.46z M307.89,296.49v4.94h2.45v-4.94H307.89z M307.89,306.42v5.57h2.45v-5.57H307.89z
			 M318.55,296.49h-2.35v4.94h2.35V296.49z M316.2,311.99h2.35v-5.57h-2.35V311.99z"/>
		<path class="st2" d="M339.38,300.81v-6.67c3.26-2.69,5.6-6.67,7.01-11.95h7.25c-0.38,2.08-0.88,3.95-1.49,5.62
			c3.33-1.31,5.87-3.33,7.63-6.05h7.01c-0.26,0.58-0.53,1.14-0.82,1.68h11.66v4.56c-0.54,0.64-1.15,1.3-1.82,1.97h6.53v12.24h-12.05
			c1.57,2.08,2.35,4.66,2.35,7.73v15.36H360.6v-4.8h4.51v-2.54c-3.94,2.34-8.66,4.16-14.16,5.47v-4.7c5.5-1.6,10.22-3.79,14.16-6.58
			v-1.01c-3.52,2.27-8.08,4.08-13.68,5.42v-4.61c4.8-1.28,9.1-3.26,12.91-5.95c-0.1-0.26-0.22-0.48-0.38-0.67
			c-3.01,2.05-6.99,3.54-11.95,4.46v-4.94c2.46-0.67,4.58-1.55,6.34-2.64h-5.42v-9.36c-0.35,0.1-0.72,0.16-1.1,0.19v-4.37
			c-0.51,1.34-1.09,2.54-1.73,3.6v33.22h-7.3v-26.02C341.67,300.04,340.53,300.49,339.38,300.81z M363.38,297.64
			c0.67-0.93,1.25-1.97,1.73-3.12h-5.18v3.12H363.38z M369.29,287.99h-6.67c-0.77,0.77-1.58,1.42-2.45,1.97h7.34
			C368.15,289.32,368.74,288.66,369.29,287.99z M375.29,294.52h-3.17c-0.38,1.12-0.85,2.16-1.39,3.12h4.56V294.52z M379.08,308.44
			c0.19,3.55,1.6,6.56,4.22,9.02v6.77c-6.46-2.94-9.98-8.21-10.56-15.79v-4.61h5.14c1.06,0,1.87-0.05,2.45-0.14s1.39-0.35,2.45-0.77
			v4.75c-1.09,0.54-2.16,0.8-3.22,0.77H379.08z"/>
		<path class="st1" d="M29.49,353.85v5.71h4.66v-4.61h7.68v4.61h4.51v5.57H29.49v5.9c1.15,1.54,2.34,2.99,3.55,4.37
			c0.83-2.59,1.54-5.46,2.11-8.59h7.63c-0.61,3.87-1.49,7.25-2.64,10.13h-5.66c3.62,3.84,7.47,7.17,11.57,9.98v7.87
			c-6.72-3.58-12.24-7.84-16.56-12.77v15.17H16.1v-5.52h4.99v-26.54H4.1v-5.57h16.99v-5.71H29.49z M19.94,384.9
			c-4.06,3.49-9.31,6.66-15.74,9.5v-7.97c5.34-2.78,10.59-6.19,15.74-10.22V384.9z M7.46,366.81h7.63
			c0.58,3.36,1.44,6.74,2.59,10.13H10.1C8.95,374.06,8.07,370.68,7.46,366.81z"/>
		<path class="st1" d="M51.53,361.29v-5.28h18.96v5.28H68.9v23.28c0.26-0.06,0.66-0.13,1.2-0.19c0.45-0.1,0.78-0.16,1.01-0.19v5.33
			c-0.22,0.03-0.54,0.1-0.96,0.19c-0.54,0.13-0.96,0.22-1.25,0.29v7.49h-6.29v-6.43c-3.62,0.54-7.44,0.96-11.47,1.25v-5.81
			c0.22,0,0.58-0.02,1.06-0.05c0.45,0,0.78-0.02,1.01-0.05v-25.1H51.53z M59.54,361.29v4.42h3.07v-4.42H59.54z M59.54,370.74v4.85
			h3.07v-4.85H59.54z M59.54,385.82c0.35-0.03,0.86-0.1,1.54-0.19c0.7-0.06,1.22-0.13,1.54-0.19v-4.85h-3.07V385.82z M81.72,381.64
			c-1.02,8.54-4.86,13.87-11.52,15.98v-6.82c2.27-2.14,3.78-5.2,4.51-9.17H81.72z M71.83,379.58v-23.33H93v23.33H71.83z
			 M85.41,361.53h-6v12.77h6V361.53z M83.4,381.64h7.01c0.67,3.87,2.18,6.93,4.51,9.17v6.82C88.13,395.32,84.29,389.99,83.4,381.64z
			"/>
		<path class="st1" d="M142.92,389.99v5.23h-19.87v2.26h-7.54v-26.02c-0.61,0.35-1.25,0.64-1.92,0.86v5.47
			c-0.93,0.32-1.87,0.62-2.83,0.91v18.58h-10.51v-5.28h3.07v-11.52c-0.74,0.13-1.86,0.3-3.36,0.53c-0.22,0.03-0.38,0.06-0.48,0.1
			v-6.29c1.31-0.13,2.59-0.29,3.84-0.48v-9.65h-3.46v-5.28h3.46v-5.33h7.44v5.33h2.83v5.28h-2.83v8.11
			c0.35-0.06,0.88-0.21,1.58-0.43c0.16-0.03,0.29-0.06,0.38-0.1v-6.43c3.1-2.78,5.25-6.64,6.43-11.57h6.96
			c-0.29,1.92-0.69,3.68-1.2,5.28h2.93v-4.42h7.63v4.42h7.06v5.28h-7.06v4.85h6.53v5.04h-6.53v4.94h6.53v5.04h-6.53v5.28H142.92z
			 M123.05,364.84v4.85h4.8v-4.85H123.05z M123.05,374.73v4.94h4.8v-4.94H123.05z M123.05,384.71v5.28h4.8v-5.28H123.05z"/>
		<path class="st1" d="M159.38,363.88h7.97c-0.19,0.54-0.4,1.06-0.62,1.54h24.1v4.8h-26.59c-1.06,1.63-2.24,3.07-3.55,4.32v22.8
			h-7.82v-17.86c-1.63,0.67-3.38,1.23-5.23,1.68v-5.9c3.01-1.25,5.52-2.93,7.54-5.04h-7.25v-4.8h10.75
			C158.92,364.94,159.16,364.42,159.38,363.88z M157.46,363.26v-2.21h-9.5v-5.04h9.5v-2.16h7.92v2.16h8.35v-2.16h7.92v2.16h9.36
			v5.04h-9.36v2.21h-7.92v-2.21h-8.35v2.21H157.46z M161.64,387.26v-4.8h11.71v-2.06c1.7-0.74,3.42-1.71,5.18-2.93h-15.07v-4.8
			h26.06v4.75c-2.24,2.08-4.99,3.76-8.26,5.04h9.74v4.8h-9.74v9.89h-13.2v-4.8h5.28v-5.09H161.64z"/>
		<path class="st1" d="M197.54,361.43v-5.52h39.26v5.52h-15.31v16.66h17.38v5.52h-17.38v13.97h-8.64v-13.97h-17.47v-5.52h17.47
			v-16.66H197.54z M198.93,364.6h7.97c0.64,3.42,1.54,6.85,2.69,10.27h-7.78C200.66,372.09,199.7,368.66,198.93,364.6z
			 M235.32,364.6c-0.8,4.06-1.76,7.49-2.88,10.27h-7.78c1.22-3.49,2.11-6.91,2.69-10.27H235.32z"/>
		<path class="st1" d="M280.2,359.8c2.46,4.77,4.59,9.6,6.38,14.5h-8.16c-0.1-0.22-0.22-0.58-0.38-1.06
			c-0.16-0.48-0.29-0.85-0.38-1.1c-7.94,0.67-17.26,1.02-27.98,1.06h-3.98v-6.34c4.96-4.25,8.85-8.46,11.66-12.62h8.88
			c-2.91,5.57-6.43,9.79-10.56,12.67c6.69,0,13.23-0.22,19.63-0.67c-0.54-1.34-1.41-3.31-2.59-5.9c-0.1-0.22-0.18-0.4-0.24-0.53
			H280.2z M247.46,396.9v-20.4h35.66v20.4H247.46z M274.97,382.02h-19.34v9.36h19.34V382.02z"/>
	</g>
</g>
</svg>
