<!-- Generator: Adobe Illustrator 25.0.0, SVG Export Plug-In  -->
<svg version="1.1" xmlns="http://www.w3.org/2000/svg" xmlns:xlink="http://www.w3.org/1999/xlink" x="0px" y="0px" width="64.39px"
	 height="64.39px" viewBox="0 0 64.39 64.39" style="overflow:visible;enable-background:new 0 0 64.39 64.39;"
	 xml:space="preserve">
<style type="text/css">
	.st0{fill:#5725BC;}
	.st1{fill:#C78EFF;}
</style>
<defs>
</defs>
<g>
	<path class="st0" d="M57.94,64.39H6.45C2.89,64.39,0,61.5,0,57.94V6.45C0,2.89,2.89,0,6.45,0h51.49c3.56,0,6.45,2.89,6.45,6.45
		v51.49C64.39,61.5,61.5,64.39,57.94,64.39z"/>
	<g>
		<path class="st1" d="M23.93,24.72c-0.23,0.06-0.44,0.12-0.63,0.17c-0.2,0.05-0.35,0.1-0.46,0.12c-0.11,0.03-0.4,0.12-0.88,0.26
			c-2.05,0.61-3.41,0.91-4.07,0.91c-0.64,0-1.16-0.12-1.56-0.37c-0.4-0.24-0.6-0.58-0.6-1.01c0-0.7,0.29-1.49,0.87-2.36
			c0.58-0.87,1.19-1.43,1.85-1.68c0.62-0.24,1.37-0.41,2.24-0.53c0.87-0.11,1.99-0.17,3.36-0.17c2.72,0,4.72,0.15,6,0.46
			c1.28,0.31,1.92,0.79,1.92,1.45c0,0.5-0.22,1.74-0.65,3.72c-0.44,1.98-0.88,3.74-1.33,5.29c-1.79,6.38-3.84,11.68-6.16,15.9
			c-0.51,0.94-1.06,1.74-1.64,2.39c-0.58,0.65-1.19,1.15-1.81,1.47c-0.63,0.33-1.28,0.49-1.96,0.49c-0.97,0-1.91-0.7-2.83-2.11
			c-0.92-1.41-1.39-2.87-1.39-4.4c0-1.12,0.19-2.21,0.58-3.26c0.39-1.05,0.91-1.93,1.58-2.64c0.38-0.36,0.78-0.67,1.21-0.93
			c0.42-0.26,0.74-0.39,0.96-0.39c0.19,0,0.34,0.11,0.46,0.32c0.11,0.21,0.17,0.52,0.17,0.93c0,0.19-0.05,0.53-0.14,1.02
			c-0.42,2.26-0.63,4.21-0.63,5.83c0,0.88,0.1,1.65,0.29,2.3c0.43-0.73,0.77-1.47,1.04-2.23c0.68-2.17,1.24-4.17,1.68-6
			c0.71-3.01,1.24-5.51,1.57-7.48C23.28,30.24,23.61,27.74,23.93,24.72z"/>
		<path class="st1" d="M38.75,27.33l0.41-1.04c-1.33-0.04-2.27-0.17-2.8-0.4c-0.53-0.23-0.79-0.63-0.79-1.21
			c0-0.46,0.18-0.92,0.55-1.38c0.42-0.57,0.86-1.09,1.34-1.56c0.48-0.47,0.92-0.81,1.32-1.01c0.35-0.14,0.82-0.21,1.43-0.21
			c1.48,0,3.15,0.08,5.02,0.25c0.43,0.02,0.79,0.04,1.07,0.05c0.29,0.01,0.6,0.03,0.93,0.05c0.79,0,1.29,0.02,1.5,0.04
			c0.21,0.03,0.47,0.1,0.77,0.22c0.2,0.07,0.38,0.18,0.52,0.32c0.3,0.31,0.45,0.8,0.45,1.46c0,1.24-0.43,2.03-1.28,2.38
			c-0.5,0.21-0.95,0.35-1.35,0.42c-0.4,0.07-1.13,0.15-2.19,0.24l-1.94,6.4c0.92,0,1.66-0.02,2.23-0.07
			c0.36-0.02,0.9-0.04,1.64-0.04c0.87,0,1.48,0.09,1.84,0.28c0.36,0.19,0.54,0.51,0.54,0.98c0,0.36-0.17,0.88-0.52,1.56
			c-0.35,0.68-0.72,1.23-1.12,1.63c-0.19,0.19-0.46,0.32-0.8,0.39c-0.35,0.07-0.93,0.1-1.77,0.1h-0.25h-0.45
			c-0.8,0-1.71,0.04-2.73,0.11c-0.53,1.81-1.03,3.19-1.48,4.15c-0.45,0.96-1.01,1.77-1.66,2.43c-0.45,0.46-0.93,0.82-1.44,1.07
			c-0.51,0.25-0.98,0.37-1.42,0.37c-0.73,0-1.36-0.21-1.89-0.62s-0.8-0.9-0.8-1.44c0-0.67,0.57-2.75,1.7-6.25
			C36.45,33.49,37.59,30.27,38.75,27.33z"/>
	</g>
</g>
</svg>
