<!-- Generator: Adobe Illustrator 25.0.0, SVG Export Plug-In  -->
<svg version="1.1" xmlns="http://www.w3.org/2000/svg" xmlns:xlink="http://www.w3.org/1999/xlink" x="0px" y="0px" width="466.7px"
	 height="150.25px" viewBox="0 0 466.7 150.25" style="overflow:visible;enable-background:new 0 0 466.7 150.25;"
	 xml:space="preserve">
<style type="text/css">
	.st0{opacity:0.8;}
	.st1{fill:#5725BC;}
	.st2{opacity:0.39;}
	.st3{opacity:0.2;}
</style>
<defs>
</defs>
<g class="st0">
	<g>
		<path class="st1" d="M25.74,1.58v42.64c0,6.43-1.82,11.73-5.47,15.92c-3.65,4.19-8.27,6.28-13.86,6.28
			c-1.64,0-3.55-0.36-5.75-1.07V47.14c0.93,0.4,1.78,0.6,2.55,0.6c2.47,0,3.71-1.99,3.71-5.98V1.58H25.74z"/>
		<path class="st1" d="M57.16,17.66c6.55,0,12.17,2.36,16.85,7.07c4.68,4.71,7.02,10.36,7.02,16.94c0,6.67-2.37,12.36-7.11,17.06
			c-4.74,4.7-10.47,7.04-17.17,7.04c-6.71,0-12.44-2.36-17.2-7.07c-4.76-4.71-7.14-10.39-7.14-17.03c0-6.77,2.38-12.46,7.14-17.08
			C44.31,19.97,50.18,17.66,57.16,17.66z M56.7,34.76c-1.85,0-3.43,0.67-4.73,2.02c-1.3,1.34-1.95,2.99-1.95,4.94
			c0,1.92,0.66,3.55,1.97,4.91c1.31,1.36,2.88,2.04,4.7,2.04c1.85,0,3.44-0.68,4.75-2.04c1.31-1.36,1.97-3,1.97-4.91
			c0-1.95-0.65-3.59-1.95-4.94C60.17,35.43,58.58,34.76,56.7,34.76z"/>
		<path class="st1" d="M104.58,1.58v37.87c0,6.15,2.21,9.22,6.63,9.22c1.88,0,3.48-0.64,4.8-1.92s1.97-2.83,1.97-4.66
			c0-1.88-0.62-3.47-1.85-4.75c-1.24-1.28-2.75-1.92-4.54-1.92c-1.27,0-2.72,0.56-4.36,1.67V17.98c2.04-0.19,3.58-0.28,4.64-0.28
			c6.52,0,12.1,2.35,16.75,7.04c4.65,4.7,6.98,10.35,6.98,16.96c0,6.77-2.36,12.47-7.09,17.1s-10.54,6.95-17.43,6.95
			c-3.46,0-6.84-0.76-10.13-2.27c-3.29-1.51-6-3.55-8.13-6.12c-3.71-4.45-5.56-10.21-5.56-17.29V1.58H104.58z"/>
		<path class="st1" d="M168.26,31.38v16.96H162v16.5h-18.82V25.58c0-7.38,2.28-13.49,6.84-18.33C154.58,2.42,160.32,0,167.24,0
			c7.63,0,14.01,3.29,19.14,9.87l-15.43,11.26c-0.87-2.41-2.39-3.62-4.59-3.62c-2.9,0-4.36,2.01-4.36,6.03v7.83H168.26z"/>
		<path class="st1" d="M206.22,1.58v63.26h-17.33V1.58H206.22z"/>
		<path class="st1" d="M238.29,17.66c6.55,0,12.17,2.36,16.85,7.07c4.68,4.71,7.02,10.36,7.02,16.94c0,6.67-2.37,12.36-7.11,17.06
			c-4.74,4.7-10.47,7.04-17.17,7.04c-6.71,0-12.44-2.36-17.2-7.07c-4.76-4.71-7.14-10.39-7.14-17.03c0-6.77,2.38-12.46,7.14-17.08
			C225.44,19.97,231.31,17.66,238.29,17.66z M237.83,34.76c-1.85,0-3.43,0.67-4.73,2.02c-1.3,1.34-1.95,2.99-1.95,4.94
			c0,1.92,0.66,3.55,1.97,4.91c1.31,1.36,2.88,2.04,4.7,2.04c1.85,0,3.44-0.68,4.75-2.04c1.31-1.36,1.97-3,1.97-4.91
			c0-1.95-0.65-3.59-1.95-4.94C241.3,35.43,239.71,34.76,237.83,34.76z"/>
		<path class="st1" d="M269.39,19.28h17.33v24.89c0,1.95,0.2,3.3,0.6,4.05c0.4,0.76,1.13,1.14,2.18,1.14c1.95,0,2.92-1.73,2.92-5.19
			V19.28h17.33v24.89c0,1.95,0.21,3.3,0.63,4.05c0.42,0.76,1.15,1.14,2.2,1.14c1.92,0,2.87-1.73,2.87-5.19V19.28h17.33v28.46
			c0,5.19-1.75,9.6-5.24,13.23c-3.49,3.63-7.72,5.45-12.7,5.45c-5.13,0-9.73-2.16-13.81-6.49c-4.51,4.33-9.05,6.49-13.63,6.49
			c-5.78,0-10.41-2.1-13.9-6.3c-2.75-3.31-4.12-8.08-4.12-14.32V19.28z"/>
		<path class="st1" d="M414.65,33.09v16.68h-5.42v15.06h-18.82V24.61c0-7.79,2.12-13.83,6.37-18.14C401.03,2.16,407,0,414.69,0
			c7.42,0,12.9,1.95,16.45,5.86c3.55,3.91,5.33,9.94,5.33,18.1v40.88h-18.82V25.21c0-2.47-0.29-4.19-0.88-5.14
			c-0.59-0.96-1.64-1.44-3.15-1.44c-2.94,0-4.4,2.19-4.4,6.58v7.88H414.65z"/>
		<path class="st1" d="M466.7,1.58v63.26h-18.82V1.58H466.7z"/>
	</g>
</g>
<g class="st2">
	<g>
		<path class="st1" d="M25.74,43.94v42.64c0,6.43-1.82,11.73-5.47,15.92c-3.65,4.19-8.27,6.28-13.86,6.28
			c-1.64,0-3.55-0.36-5.75-1.07V89.5c0.93,0.4,1.78,0.6,2.55,0.6c2.47,0,3.71-1.99,3.71-5.98V43.94H25.74z"/>
		<path class="st1" d="M57.16,60.03c6.55,0,12.17,2.36,16.85,7.07c4.68,4.71,7.02,10.36,7.02,16.94c0,6.67-2.37,12.36-7.11,17.06
			c-4.74,4.7-10.47,7.04-17.17,7.04c-6.71,0-12.44-2.36-17.2-7.07c-4.76-4.71-7.14-10.39-7.14-17.03c0-6.77,2.38-12.46,7.14-17.08
			C44.31,62.34,50.18,60.03,57.16,60.03z M56.7,77.13c-1.85,0-3.43,0.67-4.73,2.02c-1.3,1.34-1.95,2.99-1.95,4.94
			c0,1.92,0.66,3.55,1.97,4.91c1.31,1.36,2.88,2.04,4.7,2.04c1.85,0,3.44-0.68,4.75-2.04c1.31-1.36,1.97-3,1.97-4.91
			c0-1.95-0.65-3.59-1.95-4.94C60.17,77.8,58.58,77.13,56.7,77.13z"/>
		<path class="st1" d="M104.58,43.94v37.87c0,6.15,2.21,9.22,6.63,9.22c1.88,0,3.48-0.64,4.8-1.92s1.97-2.83,1.97-4.66
			c0-1.88-0.62-3.47-1.85-4.75c-1.24-1.28-2.75-1.92-4.54-1.92c-1.27,0-2.72,0.56-4.36,1.67V60.35c2.04-0.19,3.58-0.28,4.64-0.28
			c6.52,0,12.1,2.35,16.75,7.04c4.65,4.7,6.98,10.35,6.98,16.96c0,6.77-2.36,12.47-7.09,17.1s-10.54,6.95-17.43,6.95
			c-3.46,0-6.84-0.76-10.13-2.27c-3.29-1.51-6-3.55-8.13-6.12c-3.71-4.45-5.56-10.21-5.56-17.29V43.94H104.58z"/>
		<path class="st1" d="M168.26,73.75v16.96H162v16.5h-18.82V67.95c0-7.38,2.28-13.49,6.84-18.33c4.56-4.83,10.3-7.25,17.22-7.25
			c7.63,0,14.01,3.29,19.14,9.87L170.95,63.5c-0.87-2.41-2.39-3.62-4.59-3.62c-2.9,0-4.36,2.01-4.36,6.03v7.83H168.26z"/>
		<path class="st1" d="M206.22,43.94v63.26h-17.33V43.94H206.22z"/>
		<path class="st1" d="M238.29,60.03c6.55,0,12.17,2.36,16.85,7.07c4.68,4.71,7.02,10.36,7.02,16.94c0,6.67-2.37,12.36-7.11,17.06
			c-4.74,4.7-10.47,7.04-17.17,7.04c-6.71,0-12.44-2.36-17.2-7.07c-4.76-4.71-7.14-10.39-7.14-17.03c0-6.77,2.38-12.46,7.14-17.08
			C225.44,62.34,231.31,60.03,238.29,60.03z M237.83,77.13c-1.85,0-3.43,0.67-4.73,2.02c-1.3,1.34-1.95,2.99-1.95,4.94
			c0,1.92,0.66,3.55,1.97,4.91c1.31,1.36,2.88,2.04,4.7,2.04c1.85,0,3.44-0.68,4.75-2.04c1.31-1.36,1.97-3,1.97-4.91
			c0-1.95-0.65-3.59-1.95-4.94C241.3,77.8,239.71,77.13,237.83,77.13z"/>
		<path class="st1" d="M269.39,61.65h17.33v24.89c0,1.95,0.2,3.3,0.6,4.05c0.4,0.76,1.13,1.14,2.18,1.14c1.95,0,2.92-1.73,2.92-5.19
			V61.65h17.33v24.89c0,1.95,0.21,3.3,0.63,4.05c0.42,0.76,1.15,1.14,2.2,1.14c1.92,0,2.87-1.73,2.87-5.19V61.65h17.33v28.46
			c0,5.19-1.75,9.6-5.24,13.23c-3.49,3.63-7.72,5.45-12.7,5.45c-5.13,0-9.73-2.16-13.81-6.49c-4.51,4.33-9.05,6.49-13.63,6.49
			c-5.78,0-10.41-2.1-13.9-6.3c-2.75-3.31-4.12-8.08-4.12-14.32V61.65z"/>
		<path class="st1" d="M414.65,75.46v16.68h-5.42v15.06h-18.82V66.98c0-7.79,2.12-13.83,6.37-18.14c4.25-4.31,10.22-6.47,17.91-6.47
			c7.42,0,12.9,1.95,16.45,5.86c3.55,3.91,5.33,9.94,5.33,18.1v40.88h-18.82V67.58c0-2.47-0.29-4.19-0.88-5.14
			c-0.59-0.96-1.64-1.44-3.15-1.44c-2.94,0-4.4,2.19-4.4,6.58v7.88H414.65z"/>
		<path class="st1" d="M466.69,43.94v63.26h-18.82V43.94H466.69z"/>
	</g>
</g>
<g class="st3">
	<g>
		<path class="st1" d="M25.07,85.41v42.64c0,6.43-1.82,11.73-5.47,15.92c-3.65,4.19-8.27,6.28-13.86,6.28
			c-1.64,0-3.55-0.36-5.75-1.07v-18.21c0.93,0.4,1.78,0.6,2.55,0.6c2.47,0,3.71-1.99,3.71-5.98V85.41H25.07z"/>
		<path class="st1" d="M56.5,101.49c6.55,0,12.17,2.36,16.85,7.07c4.68,4.71,7.02,10.36,7.02,16.94c0,6.67-2.37,12.36-7.11,17.06
			c-4.74,4.7-10.47,7.04-17.17,7.04c-6.71,0-12.44-2.36-17.2-7.07c-4.76-4.71-7.14-10.39-7.14-17.03c0-6.77,2.38-12.46,7.14-17.08
			C43.64,103.8,49.51,101.49,56.5,101.49z M56.03,118.6c-1.85,0-3.43,0.67-4.73,2.02c-1.3,1.34-1.95,2.99-1.95,4.94
			c0,1.92,0.66,3.55,1.97,4.91c1.31,1.36,2.88,2.04,4.7,2.04c1.85,0,3.44-0.68,4.75-2.04c1.31-1.36,1.97-3,1.97-4.91
			c0-1.95-0.65-3.59-1.95-4.94C59.51,119.27,57.92,118.6,56.03,118.6z"/>
		<path class="st1" d="M103.91,85.41v37.87c0,6.15,2.21,9.22,6.63,9.22c1.88,0,3.48-0.64,4.8-1.92s1.97-2.83,1.97-4.66
			c0-1.88-0.62-3.47-1.85-4.75c-1.24-1.28-2.75-1.92-4.54-1.92c-1.27,0-2.72,0.56-4.36,1.67v-19.09c2.04-0.19,3.58-0.28,4.64-0.28
			c6.52,0,12.1,2.35,16.75,7.04c4.65,4.7,6.98,10.35,6.98,16.96c0,6.77-2.36,12.47-7.09,17.1s-10.54,6.95-17.43,6.95
			c-3.46,0-6.84-0.76-10.13-2.27c-3.29-1.51-6-3.55-8.13-6.12c-3.71-4.45-5.56-10.21-5.56-17.29V85.41H103.91z"/>
		<path class="st1" d="M167.59,115.21v16.96h-6.26v16.5h-18.82v-39.26c0-7.38,2.28-13.49,6.84-18.33c4.56-4.83,10.3-7.25,17.22-7.25
			c7.63,0,14.01,3.29,19.14,9.87l-15.43,11.26c-0.87-2.41-2.39-3.62-4.59-3.62c-2.9,0-4.36,2.01-4.36,6.03v7.83H167.59z"/>
		<path class="st1" d="M205.55,85.41v63.26h-17.33V85.41H205.55z"/>
		<path class="st1" d="M237.63,101.49c6.55,0,12.17,2.36,16.85,7.07c4.68,4.71,7.02,10.36,7.02,16.94c0,6.67-2.37,12.36-7.11,17.06
			c-4.74,4.7-10.47,7.04-17.17,7.04c-6.71,0-12.44-2.36-17.2-7.07c-4.76-4.71-7.14-10.39-7.14-17.03c0-6.77,2.38-12.46,7.14-17.08
			C224.77,103.8,230.64,101.49,237.63,101.49z M237.16,118.6c-1.85,0-3.43,0.67-4.73,2.02c-1.3,1.34-1.95,2.99-1.95,4.94
			c0,1.92,0.66,3.55,1.97,4.91c1.31,1.36,2.88,2.04,4.7,2.04c1.85,0,3.44-0.68,4.75-2.04c1.31-1.36,1.97-3,1.97-4.91
			c0-1.95-0.65-3.59-1.95-4.94C240.64,119.27,239.05,118.6,237.16,118.6z"/>
		<path class="st1" d="M268.73,103.12h17.33v24.89c0,1.95,0.2,3.3,0.6,4.05c0.4,0.76,1.13,1.14,2.18,1.14
			c1.95,0,2.92-1.73,2.92-5.19v-24.89h17.33v24.89c0,1.95,0.21,3.3,0.63,4.05c0.42,0.76,1.15,1.14,2.2,1.14
			c1.92,0,2.87-1.73,2.87-5.19v-24.89h17.33v28.46c0,5.19-1.75,9.6-5.24,13.23c-3.49,3.63-7.72,5.45-12.7,5.45
			c-5.13,0-9.73-2.16-13.81-6.49c-4.51,4.33-9.05,6.49-13.63,6.49c-5.78,0-10.41-2.1-13.9-6.3c-2.75-3.31-4.12-8.08-4.12-14.32
			V103.12z"/>
		<path class="st1" d="M413.98,116.93v16.68h-5.42v15.06h-18.82v-40.23c0-7.79,2.12-13.83,6.37-18.14
			c4.25-4.31,10.22-6.47,17.91-6.47c7.42,0,12.9,1.95,16.45,5.86c3.55,3.91,5.33,9.94,5.33,18.1v40.88H417v-39.63
			c0-2.47-0.29-4.19-0.88-5.14c-0.59-0.96-1.64-1.44-3.15-1.44c-2.94,0-4.4,2.19-4.4,6.58v7.88H413.98z"/>
		<path class="st1" d="M466.03,85.41v63.26h-18.82V85.41H466.03z"/>
	</g>
</g>
</svg>
